<?xml version="1.0" standalone="no"?>
<!DOCTYPE svg PUBLIC "-//W3C//DTD SVG 20010904//EN"
 "http://www.w3.org/TR/2001/REC-SVG-20010904/DTD/svg10.dtd">
<svg version="1.0" xmlns="http://www.w3.org/2000/svg"
 width="300.000000pt" height="300.000000pt" viewBox="0 0 300.000000 300.000000"
 preserveAspectRatio="xMidYMid meet">
<metadata>
Created by potrace 1.10, written by Peter Selinger 2001-2011
</metadata>
<g transform="translate(0.000000,300.000000) scale(0.100000,-0.100000)"
fill="#000000" stroke="none">
<path d="M1390 2557 c-3 -2 -37 -7 -77 -10 -136 -11 -325 -71 -473 -151 -188
-100 -389 -305 -467 -476 -91 -200 -123 -342 -130 -592 l-6 -188 142 0 c106 0
141 -3 141 -13 0 -6 -46 -63 -101 -125 l-102 -113 29 -71 c55 -136 182 -313
296 -410 111 -95 262 -174 386 -203 l54 -13 -7 37 c-26 129 -29 260 -10 347
20 93 34 95 65 14 18 -48 110 -189 155 -239 51 -57 166 -125 251 -150 212 -62
484 10 687 184 247 211 397 472 442 773 19 129 19 204 -1 339 -43 299 -188
569 -413 767 -172 151 -370 247 -581 282 -45 7 -275 17 -280 11z m333 -57
c147 -32 288 -97 410 -188 121 -91 213 -185 162 -166 -8 4 -15 12 -15 20 0 8
-5 14 -11 14 -6 0 -33 19 -59 43 -45 41 -212 147 -230 147 -5 0 -10 4 -12 9
-4 11 -133 58 -233 85 -44 12 -85 25 -92 29 -6 4 -82 8 -167 9 -158 2 -219 15
-80 16 42 1 78 3 80 5 9 8 172 -7 247 -23z m-510 -11 c-4 -4 -53 -24 -107 -44
-54 -20 -108 -45 -119 -56 -29 -26 -8 -24 78 7 146 53 207 66 339 71 150 6
237 -6 382 -52 254 -83 461 -234 603 -442 198 -291 237 -744 92 -1082 -57
-132 -115 -219 -224 -337 -72 -77 -112 -90 -256 -81 -214 13 -425 136 -526
308 -28 48 -46 87 -50 109 0 3 -7 23 -15 45 -8 23 -14 79 -14 130 0 173 77
330 207 419 l53 36 114 -19 c113 -20 165 -36 265 -81 29 -13 75 -24 110 -26
33 -1 63 -3 68 -3 11 -1 9 -116 -3 -147 -7 -18 -7 -31 -1 -37 7 -7 13 -4 17 9
4 10 19 37 34 59 50 75 70 138 70 217 0 105 -44 196 -144 293 -59 59 -93 82
-187 128 -63 32 -119 57 -125 57 -6 0 -35 23 -64 51 -62 60 -211 161 -290 197
-149 67 -387 122 -528 122 -59 0 -180 -39 -280 -90 -74 -38 -91 -43 -77 -21
10 17 120 90 173 115 26 12 58 28 72 36 14 8 27 15 30 16 7 1 37 13 80 32 19
8 42 16 50 17 8 1 29 7 45 15 67 28 146 47 128 29z m-108 -203 c108 -8 261
-45 350 -85 11 -5 35 -15 54 -22 55 -21 223 -137 268 -185 30 -32 40 -51 37
-67 -23 -107 -31 -207 -16 -207 4 0 9 33 10 73 3 72 16 131 34 154 8 10 17 8
41 -9 17 -13 57 -35 89 -50 194 -92 316 -239 320 -389 2 -67 -5 -106 -22 -123
-11 -11 -67 45 -114 113 -35 52 -84 84 -173 112 -84 26 -132 48 -156 68 -16
13 -18 13 -15 1 4 -18 61 -60 82 -60 8 0 18 -4 21 -10 3 -5 15 -10 26 -10 10
0 27 -4 37 -9 9 -5 36 -17 60 -27 45 -18 117 -88 107 -104 -10 -16 -47 -11
-110 16 -188 80 -363 101 -640 77 -44 -4 -84 -6 -88 -5 -4 1 -23 -8 -42 -21
-76 -52 -177 -224 -198 -337 -3 -14 -8 -36 -11 -50 -3 -14 -8 -52 -10 -84 -5
-59 -16 -83 -33 -73 -9 5 -102 149 -129 197 -6 11 -18 28 -26 37 -8 10 -22 33
-32 51 -38 75 -47 91 -63 103 -14 12 -15 11 -8 -11 17 -54 100 -193 292 -487
10 -15 12 -10 12 32 1 56 17 192 32 275 14 75 76 203 135 276 48 60 50 62 108
68 88 9 264 7 270 -3 3 -5 -9 -15 -27 -22 -38 -15 -117 -95 -140 -141 -53
-108 -77 -200 -77 -292 0 -50 15 -130 31 -158 5 -10 9 -26 9 -36 0 -10 16 -44
35 -76 19 -32 35 -61 35 -65 1 -11 43 -55 105 -107 55 -48 195 -132 195 -118
0 4 6 1 14 -5 14 -12 87 -35 146 -47 52 -10 203 -6 236 6 53 20 101 60 166
138 95 114 123 159 186 302 91 204 110 516 47 769 -8 35 -13 66 -10 69 2 3 -1
10 -9 16 -15 13 -40 95 -31 104 5 5 16 -23 18 -45 0 -4 7 -13 16 -20 9 -7 13
-13 8 -13 -4 0 1 -17 12 -37 25 -51 58 -191 67 -288 11 -124 9 -178 -12 -330
-11 -84 -51 -199 -107 -310 -32 -62 -53 -101 -57 -105 -3 -3 -25 -32 -50 -65
-61 -83 -76 -100 -150 -172 -167 -165 -393 -260 -593 -249 -109 6 -179 29
-267 88 -91 60 -146 129 -233 288 -50 92 -81 99 -122 30 -16 -28 -19 -53 -20
-154 0 -67 2 -143 5 -170 4 -39 2 -51 -13 -60 -15 -9 -23 -5 -55 29 -120 129
-212 341 -257 597 -17 98 -20 358 -4 442 12 67 7 94 -11 51 -19 -48 -25 -119
-24 -295 1 -156 10 -220 48 -355 1 -5 6 -26 10 -45 5 -19 11 -39 14 -45 4 -5
8 -17 9 -25 4 -29 51 -126 92 -194 44 -71 49 -86 28 -86 -14 0 -113 61 -157
96 -93 75 -195 187 -247 274 -36 58 -93 178 -93 194 0 9 25 42 55 74 30 33 65
72 77 88 13 16 28 35 35 42 19 20 16 57 -8 78 -17 16 -41 20 -132 24 l-112 5
2 160 c1 114 8 187 22 255 23 113 82 280 116 332 14 21 25 40 25 44 0 12 98
123 150 169 29 26 67 54 84 62 17 7 56 27 86 44 73 40 151 57 214 48 28 -4 83
-10 121 -13z m1307 -254 c17 -26 35 -48 40 -50 4 -2 8 -8 8 -12 0 -5 10 -26
22 -47 26 -43 31 -63 16 -63 -6 0 -7 7 -4 15 3 9 -1 18 -9 21 -8 4 -15 15 -15
25 0 10 -4 19 -10 19 -5 0 -29 30 -53 68 -24 37 -56 78 -70 91 -15 13 -24 28
-21 33 7 12 51 -34 96 -100z"/>
<path d="M1154 2052 c-23 -15 -36 -58 -35 -115 1 -72 21 -104 86 -136 l46 -23
72 23 c79 25 124 52 133 81 11 36 -25 68 -138 124 -107 52 -141 62 -164 46z
m147 -84 c71 -34 129 -65 129 -69 0 -12 -45 -37 -91 -50 -24 -7 -49 -17 -56
-22 -16 -12 -101 20 -113 44 -11 20 -14 159 -4 159 4 0 65 -28 135 -62z"/>
</g>
</svg>
